<?xml version="1.0" encoding="UTF-8"?>
<svg width="70px" height="56px" viewBox="0 0 70 56" version="1.1" xmlns="http://www.w3.org/2000/svg" xmlns:xlink="http://www.w3.org/1999/xlink">
    <!-- Generator: Sketch 54.1 (76490) - https://sketchapp.com -->
    <title>Group 12</title>
    <desc>Created with Sketch.</desc>
    <g id="Page-3" stroke="none" stroke-width="1" fill="none" fill-rule="evenodd">
        <g id="Group-12" fill="#ffffff">
            <path d="M0.884815118,49.3663369 L0.884815118,49.3663369 C1.83696324,49.495326 3.96864353,50.2531738 3.5067792,51.8011137 C2.03592258,53.1152527 1.3608897,50.2854181 0.714285714,49.2857143" id="Fill-4" style="mix-blend-mode: multiply;"></path>
            <path d="M10.5047442,55.657508 L10.5047442,55.657508 C9.41677674,55.7237394 6.91042555,55.335805 7.16025073,53.433948 C8.5786463,51.5794288 9.8116682,54.7018527 10.7142857,55.7142857" id="Fill-6" style="mix-blend-mode: multiply;"></path>
            <path d="M5.78742775,43.2531918 L5.78742775,43.2531918 C5.78742775,43.2531918 5.39911546,41.0323737 3.58149156,39.8934874 C1.763864,38.754601 0.549365997,39.3891205 0.111480404,40.3815747 C-0.128115607,40.9347562 -0.326401542,46.507163 3.41625125,47.5891068 C7.16716971,48.6791784 8.92695707,47.6460493 9.36484631,47.2149046 C9.81099028,46.77562 11.9590899,42.3339478 13.1653369,42.6593473 C14.3798385,42.9847468 13.9419614,44.2293784 13.553637,44.4490327 C13.1653369,44.6605352 11.9590899,45.3113222 11.463369,46.2875207 C10.9676603,47.2637073 10.6371796,49.5984225 11.4055373,50.843066 C12.1739072,52.0958374 14.1567665,53.722823 17.4119714,53.5601232 C20.6589093,53.3974235 20.2210201,52.8523817 19.4443955,52.8523817 C18.67605,52.8523817 17.2962959,52.9093362 16.3048662,52.8523817 C15.3134365,52.7954392 13.6280024,52.8523817 12.2895705,50.9000086 C10.9511387,48.9476235 12.3391475,47.6297818 12.7852915,47.3206498 C13.7188773,46.6698628 16.3626979,47.1010076 16.5279382,45.2055769 C16.6931785,43.3101463 16.1974576,40.9754312 13.0000966,40.4303894 C9.81099028,39.8934874 9.48050967,41.3008187 9.53008662,42.3339478 C9.5879183,43.3589491 9.69531477,45.0428772 8.48907999,46.238706 C7.27457834,47.4264071 5.58914424,47.1010076 3.87065601,46.4827557 C2.15218115,45.856364 0.524579951,43.822641 1.10291494,42.057375 C1.52427286,40.7883241 2.04477374,40.2676896 3.14361083,40.5930772 C4.24244548,40.9184767 5.78742775,43.2531918 5.78742775,43.2531918 Z" id="Fill-7" style="mix-blend-mode: multiply;"></path>
            <path d="M22.8138382,43.0185449 L22.8138382,43.0185449 C23.0870659,43.4599689 24.3621691,43.1268235 24.4118414,42.2939296 C24.4697984,41.4610478 23.5838613,40.220053 21.3814213,39.4621145 C19.5847048,38.8457902 15.2543393,37.8546512 13.5404099,36.8551907 C11.8264927,35.8557302 8.34896164,31.9661546 9.81449336,29.0760394 C11.2800129,26.1942581 12.9359853,25.2447639 15.0307838,26.1942581 C17.1255824,27.1354185 16.6370718,27.7434213 16.9351539,28.7428818 C17.2415086,29.7423546 16.9351539,31.4081181 16.9351539,31.4081181 C16.9351539,31.4081181 17.6223777,29.5257973 18.4503578,29.4674972 C19.2783379,29.409197 20.2056869,30.7334813 19.3942642,32.2993122 C18.5331571,33.9400986 17.9287325,34.6064015 16.5459878,35.1061379 C15.5855362,35.4559386 15.2543393,35.5475619 15.9664054,35.5225726 C16.2479179,35.5059172 18.0694887,35.2393936 19.3363072,33.5236516 C20.6031256,31.7995758 20.6031256,30.1338001 20.1063302,28.8594821 C19.6095349,27.5768548 19.6095349,27.1937187 19.6095349,27.1937187 C19.6095349,27.1937187 22.9214674,26.8772288 23.3685906,25.8361113 C23.8074168,24.8033399 23.915046,23.1958643 23.0870659,22.2463824 C22.2590858,21.3052097 21.9278889,21.0803431 21.9278889,21.0803431 C21.9278889,21.0803431 22.3170428,22.029825 22.4826413,22.6961402 C22.6482397,23.3624431 22.8717952,25.1115082 20.9922674,24.9948957 C19.1127395,24.8866293 19.4439364,25.5779215 17.2911808,24.7450398 C15.1384253,23.9121458 12.3232759,21.8049461 12.4392021,20.0808825 C12.5468313,18.3651283 14.1448467,15.7498706 16.2479179,15.5832919 C18.3427164,15.4167131 23.2029921,15.5832919 25.074223,20.9137643 C26.9537509,26.2442244 29.5867444,36.0306306 38.1066949,40.9030113 C48.0176626,46.5916183 64.395194,43.3267132 68.791777,29.7423546 C73.461612,15.3167682 63.8073146,5.49705121 53.3167523,4.42263514 C44.6229308,3.53144104 38.8767179,6.3132775 38.8767179,6.3132775 C38.8767179,6.3132775 36.7819194,3.25658358 34.5712068,2.04057798 C32.3604942,0.816226291 29.9344987,0.258202035 29.1644757,0.316502162 C28.3861678,0.374802289 30.6548374,0.707959879 31.4248605,1.14938388 C32.1948957,1.59082014 33.9667822,2.81515958 33.3043883,3.37319609 C32.6420067,3.92289876 31.8636988,3.98119888 32.3604942,4.0894653 C32.8572774,4.20607781 34.0164544,4.3726566 34.4056083,4.5392354 C34.7947623,4.70580194 36.285124,6.58813497 36.285124,6.87131402 C36.285124,7.14617148 36.285124,7.14617148 36.285124,7.14617148 C36.285124,7.14617148 31.7560574,9.64481664 30.7045218,9.86970781 C29.6612588,10.0862529 26.0678016,9.70312902 23.2526644,8.31221079 C20.437515,6.9212803 20.1642873,6.08839858 20.2719165,5.8718535 C20.3878427,5.64696232 19.9986888,4.8140806 22.9214674,4.92235927 C25.8525309,5.03897178 26.622554,5.42209566 27.5085033,5.48039578 C28.3861678,5.53869591 29.2141479,5.42209566 28.1129401,5.25551686 C27.0117201,5.08893807 24.0309722,4.14777768 21.7126182,4.14777768 C19.3942642,4.14777768 18.2847594,4.3726566 18.1191609,3.48147476 C17.9535747,2.59028065 18.1108883,0.541381084 18.0115317,0 C17.5892507,0.316502162 16.9599961,1.20769626 17.0179409,2.70688091 C17.075898,4.20607781 17.1255824,5.64696232 17.1255824,5.64696232 C17.1255824,5.64696232 13.7639776,5.92181979 12.3812329,6.37157763 C10.9985126,6.81300163 10.3940758,7.03789281 11.3296973,6.9212803 C12.2735915,6.81300163 13.2092252,6.70473522 14.8072283,6.81300163 C16.4135285,6.9212803 18.0694887,7.64589561 18.2350872,8.47877733 C18.4006856,9.3116713 17.6968922,10.1278976 16.9103117,10.0362744 C16.0823194,9.93632953 16.512873,8.72032393 16.1899608,8.70365625 C16.0160898,8.68700082 15.6931777,9.53653797 15.7511347,9.97797423 C15.8008191,10.4194105 16.7943976,11.5354713 18.177118,10.7025895 C19.5598626,9.86970781 19.7751333,9.53653797 19.5019056,8.97851371 C19.2286657,8.4204772 18.8974688,7.70419573 19.3363072,7.70419573 C19.7751333,7.70419573 21.9858459,9.47823784 24.3621691,10.4194105 C26.7301954,11.3688925 29.4956604,12.3100528 31.9796129,11.418871 C34.4635654,10.5360107 35.7883408,9.58651651 36.227167,10.4776984 C36.6660053,11.3688925 36.7819194,12.3100528 35.6227546,12.368353 C34.4635654,12.4183315 33.9088251,12.4766316 33.7432267,12.7015106 C33.577616,12.9180556 34.4635654,12.5349318 34.9024037,12.8097892 C35.3412299,13.0846467 36.1692221,13.7009711 34.9024037,14.4172525 C33.6355853,15.1418678 32.6916789,16.3662073 31.9796129,16.7493312 C31.2592742,17.1407889 30.9860343,17.2490675 30.2656956,17.2490675 C29.5453448,17.2490675 30.5058085,17.6072021 31.0936757,17.5405682 C32.335652,17.4073125 34.8444345,15.1418678 36.0036237,14.367274 C37.1628007,13.5843708 37.6595839,13.1429468 38.1066949,11.8686288 C38.5455332,10.585977 38.934675,9.20339263 39.1002734,9.03681384 C39.2658719,8.87023504 41.7498243,7.20447161 44.1178628,7.42101669 C46.4941738,7.64589561 47.3221661,7.8124744 47.380111,8.31221079 C47.4297954,8.81193492 46.7177293,9.9196741 45.0617569,10.4776984 C43.4057967,11.0357349 39.8703087,12.4183315 38.934675,13.3095134 C37.9907808,14.2007075 37.328387,15.0835677 37.7755101,14.8087103 C38.2143363,14.5338651 39.2079148,13.2512132 40.0358949,13.2512132 C40.8638872,13.2512132 41.3606704,13.8675499 40.5906473,15.0335892 C39.8123516,16.1996285 38.0487378,17.8071041 37.9907808,18.9148432 C37.9410964,20.030904 37.6099117,21.3052097 37.9410964,20.5806067 C38.2722933,19.8643252 38.9181175,18.3651283 39.6964254,18.5816734 C40.4747211,18.8065646 41.0543157,20.4140279 41.3855126,22.029825 C41.7167095,23.6373006 42.2466197,24.6284273 43.1822291,25.1281637 C44.1178628,25.6278878 44.5649737,25.7445003 43.7535389,24.9116186 C42.7185607,23.8455241 42.1472509,21.2469096 42.1969353,20.5806067 C42.2548923,19.9143038 42.5198596,19.5311799 42.5198596,19.5311799 C42.5198596,19.5311799 44.0102214,19.747725 44.1178628,20.7471855 C44.2337768,21.746646 44.4490475,22.9709854 44.5649737,22.5795277 C44.6726152,22.1964038 44.7802444,21.6383796 44.5649737,20.030904 C44.3414183,18.4151069 42.4122182,16.9742101 42.0230642,16.3662073 C41.6339103,15.7498706 41.9651072,14.4172525 42.6854459,13.8092497 C43.4057967,13.2012347 44.6726152,12.3100528 45.6082367,12.5849103 C46.5521309,12.8680894 46.4941738,13.8092497 45.7241508,14.367274 C44.9458429,14.9169889 44.3993753,14.8670104 44.9458429,14.9169889 C45.5005953,14.9752891 45.9973785,14.9752891 47.0985985,13.0346682 C48.2081032,11.0857134 49.9717049,9.9196741 51.0232526,9.9196741 C52.0665034,9.9196741 53.8880621,9.64481664 56.2643853,11.8686288 C58.6406964,14.0841072 59.187164,14.9752891 59.187164,15.6999044 C59.187164,16.4161736 58.9139363,16.6993649 58.5827393,16.6993649 C58.2515424,16.6993649 54.7160544,15.3667468 53.1180512,15.4167131 C51.5200358,15.4750132 50.0296741,15.5832919 49.5328665,16.249607 C49.0360833,16.91591 48.539288,17.6988254 49.0360833,17.199089 C49.5328665,16.6993649 50.2449448,16.3079072 51.0729249,16.3079072 C51.900905,16.3079072 52.2900589,17.0824888 52.2900589,17.5322466 C52.2900589,17.9736829 52.1244726,18.0319707 51.2964803,18.473407 C50.4685002,18.9148432 48.1501462,20.0808825 47.8769063,22.029825 C47.5953938,23.9704459 47.6533509,24.3619159 48.0425048,24.9116186 C48.4233739,25.4696551 47.8189493,23.304143 48.6469294,22.1964038 C49.4749217,21.0803431 51.2964803,18.8981756 52.6212558,19.0814098 C53.5651621,19.2146777 53.9543039,19.5311799 53.7390332,20.1974828 C53.5154777,20.8637857 52.0665034,21.8715801 52.7868421,21.6217119 C53.5071929,21.3635221 55.2128497,20.5306404 55.4943501,19.6977464 C55.7675899,18.8648647 55.4446778,17.9736829 55.4446778,17.6405253 C55.4446778,17.3073677 55.6599607,17.2490675 55.9331884,17.2490675 C56.2064283,17.2490675 58.2515424,17.3823355 59.303078,19.0314435 C60.5781813,21.0386984 62.4494243,24.7450398 61.505518,25.6362216 C60.5698965,26.5274157 60.1807547,26.4691156 59.7998734,26.1359458 C59.4107194,25.8028004 58.5247823,24.1370247 57.8623885,23.5290219 C57.2000069,22.9126853 55.7096329,22.6461617 55.9331884,23.4290771 C56.1567439,24.2036587 57.2000069,24.9116186 57.0344084,25.1947976 C56.8688099,25.4696551 56.3223423,26.0276793 55.9331884,26.0776456 C55.5440345,26.1359458 53.0104098,24.86164 51.7353065,26.1942581 C50.4685002,27.5268762 50.6920435,30.1338001 52.1244726,31.0249942 C53.5568774,31.9078544 53.1760082,31.7412756 53.5568774,31.9078544 C53.9460313,32.074421 53.3167523,31.3997965 52.6543828,30.7917814 C51.991989,30.175457 51.0729249,28.5263368 52.0168312,27.6351549 C52.9524527,26.7439608 53.5568774,26.4108032 54.4428145,26.7439608 C55.3287638,27.0771184 55.7096329,27.0771184 55.7675899,27.6351549 C55.8255592,28.1931792 55.3784482,28.4680366 55.8255592,28.1931792 C56.2643853,27.9100001 56.8688099,27.1354185 57.1503224,26.6356821 C57.4235623,26.1359458 57.4815194,26.0776456 57.9203577,26.0276793 C58.3591839,25.9693792 58.8559792,26.4524479 59.1374796,27.9349894 C59.4107194,29.409197 59.5183609,33.2987727 55.1052083,35.8557302 C50.6920435,38.4043539 44.1178628,41.6859268 37.5519425,35.9056965 C30.9860343,30.1338001 29.1644757,17.6988254 25.2977907,14.8087103 C21.4311057,11.9185951 14.6995991,11.0357349 11.2800129,14.9169889 C7.85216627,18.8065646 8.19163579,20.2058044 10.8908711,23.0292856 C12.3232759,24.5201486 11.0564696,25.0282188 10.0628789,25.1364852 C9.0693003,25.2447639 5.42617081,28.134879 6.69298925,32.0244547 C7.96808031,35.9056965 10.8991438,37.1966822 15.6352084,38.9040903 C20.5534412,40.6864662 21.7374604,40.3366532 22.5405983,40.9030113 C23.6583757,41.7025822 23.915046,42.8519661 22.8138382,43.0185449 Z" id="Fill-8" style="mix-blend-mode: multiply;"></path>
        </g>
    </g>
</svg>